<svg width="756" height="477" viewBox="0 0 756 477" fill="none" xmlns="http://www.w3.org/2000/svg">
<path d="M617 477C693.768 477 756 468.27 756 457.5C756 446.73 693.768 438 617 438C540.232 438 478 446.73 478 457.5C478 468.27 540.232 477 617 477Z" fill="#6E6E6E"/>
<path d="M520.126 407H16.8743C12.3989 407 8.1069 405.264 4.94236 402.175C1.77782 399.085 0 394.894 0 390.525C182.429 369.825 361.429 369.825 537 390.525C537 394.894 535.222 399.085 532.058 402.175C528.893 405.264 524.601 407 520.126 407Z" fill="#2F2E41"/>
<path d="M537 392L0 391.055L62.2364 291.4L62.5342 290.928V71.2994C62.534 68.6336 63.0856 65.9938 64.1575 63.5309C65.2294 61.068 66.8006 58.8301 68.7814 56.9451C70.7622 55.06 73.1138 53.5648 75.702 52.5447C78.2901 51.5247 81.064 50.9998 83.8653 51H450.157C452.958 50.9998 455.732 51.5247 458.32 52.5447C460.908 53.5648 463.26 55.06 465.241 56.9451C467.222 58.8301 468.793 61.068 469.865 63.5309C470.937 65.9938 471.488 68.6336 471.488 71.2994V292.439L537 392Z" fill="#3F3D56"/>
<path d="M82.9638 66C81.1175 66.002 79.3475 66.6977 78.0419 67.9345C76.7364 69.1713 76.0021 70.8482 76 72.5973V272.403C76.0022 274.152 76.7365 275.829 78.042 277.065C79.3475 278.302 81.1176 278.998 82.9638 279H454.036C455.882 278.998 457.652 278.302 458.958 277.065C460.263 275.829 460.998 274.152 461 272.403V72.5973C460.998 70.8482 460.263 69.1714 458.958 67.9346C457.652 66.6978 455.882 66.002 454.036 66H82.9638Z" fill="white"/>
<path d="M85.1423 305C84.5733 305.001 84.0166 305.159 83.5375 305.455C83.0585 305.752 82.6771 306.175 82.4384 306.673L63.2725 346.923C63.0639 347.361 62.9726 347.843 63.0071 348.324C63.0417 348.805 63.2009 349.27 63.4701 349.676C63.7393 350.082 64.1099 350.416 64.5478 350.647C64.9857 350.879 65.4768 351 65.9759 351H469.024C469.532 351 470.03 350.875 470.473 350.636C470.917 350.397 471.289 350.053 471.556 349.636C471.822 349.219 471.974 348.744 471.997 348.254C472.02 347.764 471.912 347.277 471.685 346.839L450.853 306.589C450.607 306.111 450.228 305.708 449.757 305.427C449.287 305.146 448.745 304.998 448.192 305H85.1423Z" fill="#2F2E41"/>
<path d="M267 62C269.209 62 271 60.2091 271 58C271 55.7909 269.209 54 267 54C264.791 54 263 55.7909 263 58C263 60.2091 264.791 62 267 62Z" fill="white"/>
<path d="M227.753 358C227.101 358.001 226.468 358.21 225.951 358.594C225.434 358.978 225.061 359.517 224.891 360.127L220.102 377.377C219.984 377.803 219.968 378.25 220.056 378.683C220.145 379.116 220.335 379.523 220.611 379.874C220.888 380.224 221.244 380.508 221.652 380.703C222.06 380.898 222.509 381 222.964 381H314.036C314.509 381 314.975 380.89 315.395 380.68C315.815 380.47 316.177 380.166 316.451 379.792C316.725 379.419 316.903 378.988 316.97 378.534C317.037 378.08 316.991 377.618 316.837 377.184L310.68 359.934C310.478 359.37 310.1 358.88 309.598 358.533C309.096 358.187 308.495 358 307.879 358H227.753Z" fill="#2F2E41"/>
<path d="M471 288V292H62L62.3078 291.501V288H471Z" fill="#2F2E41"/>
<path d="M460.5 132C498.884 132 530 102.451 530 66C530 29.5492 498.884 0 460.5 0C422.116 0 391 29.5492 391 66C391 102.451 422.116 132 460.5 132Z" fill="#6C63FF"/>
<path d="M489 95H431C429.939 94.999 428.923 94.6067 428.173 93.9091C427.423 93.2115 427.001 92.2656 427 91.2791V58.7209C427.001 57.7344 427.423 56.7886 428.173 56.091C428.923 55.3934 429.939 55.0011 431 55H489C490.061 55.0011 491.077 55.3934 491.827 56.091C492.577 56.7886 492.999 57.7344 493 58.7209V91.279C492.999 92.2656 492.577 93.2115 491.827 93.9091C491.077 94.6067 490.061 94.999 489 95ZM431 58.7209V91.2791H489.003L489 58.7209L431 58.7209Z" fill="white"/>
<path d="M478 58H442V42.8889C442 31.9439 449.57 24 460 24C470.43 24 478 31.9439 478 42.8889L478 58ZM446 54.2222H474V42.8889C474 33.9918 468.243 27.7778 460 27.7778C451.757 27.7778 446 33.9918 446 42.8889L446 54.2222Z" fill="white"/>
<path d="M460 78C462.209 78 464 76.2091 464 74C464 71.7909 462.209 70 460 70C457.791 70 456 71.7909 456 74C456 76.2091 457.791 78 460 78Z" fill="white"/>
<path d="M411.696 211H125.304C123.897 210.998 122.549 210.464 121.555 209.514C120.561 208.564 120.002 207.277 120 205.933V138.067C120.002 136.723 120.561 135.436 121.555 134.486C122.549 133.536 123.897 133.002 125.304 133H411.696C413.103 133.002 414.451 133.536 415.445 134.486C416.439 135.436 416.998 136.723 417 138.067V205.933C416.998 207.277 416.439 208.564 415.445 209.514C414.451 210.464 413.103 210.998 411.696 211ZM125.304 135.027C124.46 135.028 123.651 135.348 123.054 135.918C122.458 136.488 122.122 137.261 122.121 138.067V205.933C122.122 206.739 122.458 207.512 123.054 208.082C123.651 208.652 124.46 208.973 125.304 208.973H411.696C412.54 208.973 413.349 208.652 413.946 208.082C414.542 207.512 414.878 206.739 414.879 205.933V138.067C414.878 137.261 414.542 136.488 413.946 135.918C413.349 135.348 412.54 135.027 411.696 135.027L125.304 135.027Z" fill="#E6E6E6"/>
<path d="M169.5 190C181.374 190 191 180.822 191 169.5C191 158.178 181.374 149 169.5 149C157.626 149 148 158.178 148 169.5C148 180.822 157.626 190 169.5 190Z" fill="#E6E6E6"/>
<path d="M219.607 156C219.134 155.999 218.665 156.089 218.227 156.265C217.79 156.44 217.392 156.698 217.057 157.023C216.722 157.348 216.456 157.734 216.275 158.159C216.093 158.584 216 159.04 216 159.5C216 159.96 216.093 160.416 216.275 160.841C216.456 161.266 216.722 161.652 217.057 161.977C217.392 162.302 217.79 162.56 218.227 162.735C218.665 162.911 219.134 163.001 219.607 163H389.398C390.354 163 391.27 162.631 391.945 161.975C392.62 161.318 393 160.428 393 159.5C393 158.572 392.62 157.681 391.945 157.025C391.27 156.369 390.354 156 389.398 156H219.607Z" fill="#E6E6E6"/>
<path d="M219.59 177C218.638 177 217.725 177.316 217.051 177.879C216.378 178.441 216 179.204 216 180C216 180.796 216.378 181.559 217.051 182.121C217.725 182.684 218.638 183 219.59 183H292.41C293.362 183 294.275 182.684 294.949 182.121C295.622 181.559 296 180.796 296 180C296 179.204 295.622 178.441 294.949 177.879C294.275 177.316 293.362 177 292.41 177H219.59Z" fill="#E6E6E6"/>
<path d="M660.861 48.0003C656.46 61.6045 649.712 74 635.959 74C622.207 74 611.833 62.3367 611.058 48.0003C610.068 29.6812 621.89 21.9247 635.96 22.0006C652.581 22.0902 666.084 31.8554 660.861 48.0003Z" fill="#2F2E41"/>
<path d="M660 45H611V111H660V45Z" fill="#2F2E41"/>
<path d="M661.692 95H665.846C665.846 95 676 108.761 671.385 127.437C666.769 146.113 670.462 149.553 670.462 149.553C670.462 149.553 676.47 169.777 670.009 200.248C663.547 230.719 676 239 676 239L664.462 214.427L658 149.553L661.692 95Z" fill="#6C63FF"/>
<path opacity="0.1" d="M661.692 95H665.846C665.846 95 676 108.761 671.385 127.437C666.769 146.113 670.462 149.553 670.462 149.553C670.462 149.553 676.47 169.777 670.009 200.248C663.547 230.719 676 239 676 239L664.462 214.427L658 149.553L661.692 95Z" fill="black"/>
<path d="M647.385 70.083C647.385 70.083 643.692 86.3599 645.538 86.3599C647.385 86.3599 653.846 95.0069 653.846 95.0069L658 111.792L654.769 124L643.692 121.457L629.846 104.671L625.692 100.093L622 85.3426C622 85.3426 626.615 79.2388 623.385 74.1522C620.154 69.0657 647.385 70.083 647.385 70.083Z" fill="#FBBEBE"/>
<path opacity="0.1" d="M647.385 70.083C647.385 70.083 643.692 86.3599 645.538 86.3599C647.385 86.3599 653.846 95.0069 653.846 95.0069L658 111.792L654.769 124L643.692 121.457L629.846 104.671L625.692 100.093L622 85.3426C622 85.3426 626.615 79.2388 623.385 74.1522C620.154 69.0657 647.385 70.083 647.385 70.083Z" fill="black"/>
<path d="M537.136 116.248C537.554 115.736 537.763 115.479 537.79 115.171C537.816 114.863 537.653 114.575 537.327 113.999L527.511 96.6347C527.482 96.5834 527.467 96.5578 527.455 96.5328C527.442 96.5078 527.431 96.4822 527.41 96.4308C526.646 94.6395 515.776 69.6496 507.916 79.1462C500.131 88.5512 518.477 107.196 520.141 108.852C520.201 108.912 520.231 108.942 520.259 108.975C520.288 109.009 520.314 109.047 520.368 109.123L529.291 121.839C529.987 122.83 530.335 123.326 530.832 123.344C531.329 123.362 531.712 122.893 532.478 121.954L537.136 116.248Z" fill="#FBBEBE"/>
<path d="M671 268.457L663.645 326.754C663.645 326.754 664.565 331.239 655.371 347.682C646.177 364.125 621.355 400 621.355 400L614 385.052C614 385.052 622.734 337.716 637.903 327.751L636.065 256L671 268.457Z" fill="#FBBEBE"/>
<path opacity="0.1" d="M671 268.457L663.645 326.754C663.645 326.754 664.565 331.239 655.371 347.682C646.177 364.125 621.355 400 621.355 400L614 385.052C614 385.052 622.734 337.716 637.903 327.751L636.065 256L671 268.457Z" fill="black"/>
<path d="M613.356 378L623 398.797C623 398.797 615.11 424.05 618.178 426.526C621.247 429.002 625.192 451.284 616.863 448.808C608.534 446.332 601.959 436.429 601.959 434.944C601.959 433.458 606.781 412.661 604.151 407.71C601.521 402.758 599.767 401.273 599.767 401.273L593.192 413.652L591 412.166L601.959 391.369C601.959 391.369 603.274 387.408 608.534 384.932L613.356 378Z" fill="#2F2E41"/>
<path opacity="0.1" d="M613.356 378L623 398.797C623 398.797 615.11 424.05 618.178 426.526C621.247 429.002 625.192 451.284 616.863 448.808C608.534 446.332 601.959 436.429 601.959 434.944C601.959 433.458 606.781 412.661 604.151 407.71C601.521 402.758 599.767 401.273 599.767 401.273L593.192 413.652L591 412.166L601.959 391.369C601.959 391.369 603.274 387.408 608.534 384.932L613.356 378Z" fill="black"/>
<path d="M635.213 260.186C635.213 260.186 638.665 315.298 631.11 329.749V401.505L620.888 403C620.888 403 603.555 364.132 611.111 326.759C618.666 289.386 600 256 600 256L635.213 260.186Z" fill="#FBBEBE"/>
<path d="M633 82C643.493 82 652 72.598 652 61C652 49.402 643.493 40 633 40C622.507 40 614 49.402 614 61C614 72.598 622.507 82 633 82Z" fill="#FBBEBE"/>
<path d="M652.549 116.323L633.285 89.959L622.278 82L617.691 88.4667L604.848 92.4461C604.848 92.4461 596.593 94.4359 587.878 105.379C579.163 116.323 563.569 122.79 563.569 122.79L550.726 120.303C550.726 120.303 535.591 112.841 535.591 110.851C535.591 108.862 522.289 124.282 525.5 130.251C528.711 136.221 535.591 143.682 539.26 147.662C542.929 151.641 544.305 163.082 566.78 159.6C589.254 156.118 597.51 144.18 597.51 144.18C597.51 144.18 601.638 167.062 613.563 171.538C625.488 176.015 664.475 179 664.475 179L672.73 149.154C672.73 149.154 681.904 136.221 669.52 117.318C669.52 117.318 669.282 106.746 667.951 99.7116C667.433 96.9754 666.75 94.7743 665.85 93.9385C662.64 90.9539 645.669 85.9795 645.669 85.9795C645.669 85.9795 648.421 95.9282 649.797 96.4257C651.173 96.9231 654.384 113.836 652.549 116.323Z" fill="#6C63FF"/>
<path d="M590.822 263.917C613.959 262.198 627.429 266.249 633.438 269.339C634.555 269.879 635.607 270.562 636.571 271.372C637.012 271.77 637.224 272.079 637.224 272.266C637.224 273.739 668.924 276.686 680.409 273.739C691.895 270.792 672.599 207.437 667.545 202.035C662.492 196.632 665.216 176.859 665.216 176.859C665.216 176.859 655.141 174.531 652.385 175.514C649.628 176.496 635.386 174.04 630.332 171.094C625.279 168.147 618.847 170.111 614.712 169.129C612.865 168.692 611.933 169.429 611.469 170.381C610.746 171.811 609.656 172.988 608.326 173.775C598.573 179.782 590.744 221.311 584.85 244.272C578.418 269.319 590.822 263.917 590.822 263.917Z" fill="#2F2E41"/>
<path d="M632.834 396L634.681 406.975C634.681 406.975 644.38 421.94 641.609 434.412C641.609 434.412 643.919 450.874 652.232 455.364C660.545 459.853 653.618 470.329 645.766 469.83C637.914 469.332 630.525 470.329 629.601 467.835C628.677 465.341 623.135 440.897 623.135 440.897L621.619 469.501L617 470L618.516 436.906C618.516 436.906 614.821 429.423 619.902 416.952L618.62 397.809C618.62 397.809 631.448 400.989 632.834 396Z" fill="#2F2E41"/>
<path opacity="0.1" d="M633 268.983C634.427 269.519 635.771 270.196 637.003 271C637.314 266.397 639.11 238.557 636.956 239.005L633 268.983Z" fill="black"/>
<path d="M624.985 32.0077C624.985 32.0077 624.774 30.7218 616.536 34.1097C608.299 37.4977 603.361 62.4994 607.48 77.1805C609.14 83.097 607.789 87.3628 605.586 90.3475C597.316 101.548 600.571 118.37 612.617 124.13C612.957 124.292 613.304 124.453 613.658 124.612L618.806 128C618.806 128 612.243 118.529 615.528 106.413C618.38 96.0902 618.732 85.1305 616.55 74.613C616.173 72.8387 615.745 71.0098 615.259 69.1434C611.14 53.3329 613.143 55.1588 627.559 39.3483C627.559 39.3483 635.796 46.1242 643.004 49.5122C650.212 52.9002 656.39 56.2881 651.242 67.5813C646.093 78.8745 633.737 89.0384 641.974 103.72C650.212 118.401 651.242 112.754 650.212 118.401L649.182 124.047L655.36 117.271L651.242 126.306C651.242 126.306 664.627 126.306 668.746 115.013L670.806 117.271C670.806 117.271 679.043 101.461 663.598 86.7797C663.598 86.7797 658.449 83.3918 665.657 72.0986C672.865 60.8054 667.329 36.525 658.062 32.0077C648.795 27.4904 624.985 32.0077 624.985 32.0077Z" fill="#2F2E41"/>
<path d="M652.5 27C657.747 27 662 22.0751 662 16C662 9.92487 657.747 5 652.5 5C647.253 5 643 9.92487 643 16C643 22.0751 647.253 27 652.5 27Z" fill="#2F2E41"/>
<path d="M640.818 11C640.818 8.27316 641.656 5.64358 643.167 3.62133C644.679 1.59909 646.758 0.32833 649 0.0555487C648.701 0.0196053 648.398 0 648.091 0C645.68 0 643.368 1.15892 641.663 3.22182C639.958 5.28472 639 8.08262 639 11C639 13.9174 639.958 16.7153 641.663 18.7782C643.368 20.8411 645.68 22 648.091 22C648.398 22 648.701 21.9804 649 21.9445C646.758 21.6717 644.679 20.4009 643.167 18.3787C641.656 16.3564 640.818 13.7268 640.818 11V11Z" fill="#2F2E41"/>
<path d="M699 254C703.971 254 708 249.075 708 243C708 236.925 703.971 232 699 232C694.029 232 690 236.925 690 243C690 249.075 694.029 254 699 254Z" fill="#F1F1F1"/>
</svg>
